<svg xmlns="http://www.w3.org/2000/svg" xmlns:xlink="http://www.w3.org/1999/xlink" width="300" zoomAndPan="magnify" viewBox="0 0 224.87999 37.5" height="50" preserveAspectRatio="xMidYMid meet" version="1.0"><defs><g/><clipPath id="9c3b3bfa7a"><path d="M 1.699219 4.78125 L 38.398438 4.78125 L 38.398438 32.457031 L 1.699219 32.457031 Z M 1.699219 4.78125 " clip-rule="nonzero"/></clipPath></defs><g clip-path="url(#9c3b3bfa7a)"><path fill="#cf0d0d" d="M 37.910156 26.535156 C 37.441406 25.65625 36.742188 25.050781 35.8125 24.714844 C 35.46875 24.820312 35.117188 24.902344 34.765625 24.964844 C 33.980469 25.117188 33.242188 25.261719 32.539062 25.964844 C 31.835938 26.667969 31.59375 27.316406 31.335938 28.007812 C 31.179688 28.429688 31.015625 28.867188 30.738281 29.304688 C 30.78125 29.523438 30.84375 29.734375 30.929688 29.9375 C 31.210938 30.621094 31.648438 31.179688 32.246094 31.613281 C 32.84375 32.046875 33.507812 32.289062 34.242188 32.335938 C 34.972656 32.386719 35.664062 32.238281 36.3125 31.886719 C 36.960938 31.539062 37.46875 31.042969 37.835938 30.402344 C 37.882812 30.324219 37.925781 30.246094 37.964844 30.167969 C 38.1875 29.71875 38.320312 29.242188 38.363281 28.742188 C 38.371094 28.632812 38.378906 28.519531 38.378906 28.40625 C 38.378906 27.742188 38.222656 27.121094 37.910156 26.535156 Z M 36.5625 28.957031 C 36.511719 29.132812 36.445312 29.296875 36.355469 29.453125 C 36.265625 29.605469 36.160156 29.75 36.035156 29.878906 C 35.910156 30.003906 35.773438 30.117188 35.621094 30.210938 C 35.46875 30.300781 35.308594 30.375 35.136719 30.425781 C 34.96875 30.480469 34.792969 30.507812 34.617188 30.515625 C 34.441406 30.523438 34.265625 30.507812 34.089844 30.472656 C 33.917969 30.433594 33.75 30.375 33.589844 30.296875 C 33.433594 30.214844 33.285156 30.117188 33.152344 30 C 33.015625 29.882812 32.898438 29.75 32.796875 29.605469 C 32.695312 29.457031 32.613281 29.296875 32.550781 29.128906 C 32.488281 28.960938 32.449219 28.789062 32.429688 28.609375 C 32.410156 28.429688 32.414062 28.253906 32.4375 28.074219 C 32.464844 27.898438 32.511719 27.726562 32.578125 27.558594 C 32.648438 27.394531 32.734375 27.238281 32.839844 27.09375 C 32.949219 26.953125 33.070312 26.824219 33.210938 26.710938 C 33.347656 26.597656 33.5 26.503906 33.660156 26.433594 C 33.820312 26.359375 33.992188 26.304688 34.164062 26.273438 C 34.339844 26.242188 34.515625 26.234375 34.695312 26.25 C 34.871094 26.261719 35.042969 26.300781 35.210938 26.359375 C 35.378906 26.414062 35.539062 26.492188 35.6875 26.59375 C 35.835938 26.691406 35.96875 26.804688 36.089844 26.9375 C 36.207031 27.070312 36.308594 27.21875 36.394531 27.375 C 36.476562 27.535156 36.539062 27.703125 36.582031 27.875 C 36.621094 28.050781 36.640625 28.226562 36.640625 28.40625 C 36.636719 28.59375 36.613281 28.777344 36.5625 28.957031 Z M 32.789062 25.367188 C 33.003906 25.214844 33.238281 25.089844 33.484375 24.992188 C 33.558594 24.960938 33.640625 24.933594 33.71875 24.910156 C 34.03125 24.8125 34.347656 24.738281 34.667969 24.679688 C 34.75 24.664062 34.828125 24.648438 34.910156 24.632812 C 35.023438 24.609375 35.136719 24.585938 35.253906 24.558594 C 35.300781 24.546875 35.347656 24.539062 35.398438 24.523438 C 35.652344 24.464844 35.898438 24.378906 36.140625 24.277344 C 36.296875 24.210938 36.449219 24.132812 36.59375 24.042969 C 36.65625 24.003906 36.714844 23.96875 36.761719 23.929688 C 36.894531 23.84375 37.011719 23.738281 37.117188 23.617188 C 36.792969 23.375 36.445312 23.179688 36.070312 23.03125 C 36.039062 23.015625 36.007812 23.003906 35.976562 22.992188 C 35.8125 22.925781 35.640625 22.871094 35.46875 22.824219 C 35.433594 22.816406 35.402344 22.808594 35.367188 22.800781 C 35.1875 22.753906 35.003906 22.71875 34.816406 22.691406 C 34.625 22.671875 34.433594 22.65625 34.242188 22.65625 C 34.203125 22.65625 34.167969 22.652344 34.132812 22.652344 C 33.980469 22.65625 33.828125 22.660156 33.675781 22.675781 C 33.054688 22.738281 32.46875 22.914062 31.914062 23.195312 L 32.234375 22.726562 L 32.390625 22.5 C 32.710938 22.023438 32.773438 21.519531 32.570312 20.984375 L 30.488281 15.464844 L 31.773438 15.671875 C 31.910156 15.695312 32.03125 15.660156 32.136719 15.566406 C 32.246094 15.476562 32.296875 15.359375 32.296875 15.214844 L 32.296875 12.792969 C 32.296875 12.652344 32.246094 12.535156 32.136719 12.441406 C 32.03125 12.351562 31.910156 12.316406 31.773438 12.339844 L 28.832031 12.8125 C 28.703125 12.832031 28.597656 12.894531 28.511719 12.996094 C 28.425781 13.097656 28.382812 13.210938 28.382812 13.34375 L 28.382812 13.792969 C 28.339844 13.78125 28.292969 13.777344 28.246094 13.773438 L 25.90625 13.746094 C 25.738281 13.738281 25.601562 13.667969 25.5 13.539062 L 23.378906 10.894531 C 22.203125 9.441406 20.203125 9.894531 19.824219 11.734375 L 18.722656 15.925781 C 18.652344 16.269531 18.644531 16.617188 18.703125 16.964844 C 18.761719 17.3125 18.878906 17.636719 19.054688 17.941406 C 19.234375 18.242188 19.457031 18.503906 19.730469 18.71875 C 20.007812 18.9375 20.308594 19.097656 20.644531 19.199219 L 13.835938 19.199219 C 13.765625 19.199219 13.707031 19.222656 13.65625 19.273438 C 13.609375 19.324219 13.582031 19.382812 13.582031 19.453125 L 13.582031 20.414062 C 13.582031 20.484375 13.609375 20.542969 13.65625 20.59375 C 13.707031 20.644531 13.765625 20.667969 13.835938 20.667969 L 23.273438 20.667969 C 23.339844 20.667969 23.402344 20.644531 23.449219 20.59375 C 23.5 20.542969 23.523438 20.484375 23.523438 20.414062 L 23.523438 19.652344 L 24.8125 19.839844 L 23.792969 24.425781 C 23.769531 24.5625 23.769531 24.699219 23.800781 24.835938 C 23.828125 24.972656 23.882812 25.097656 23.960938 25.214844 C 24.039062 25.328125 24.136719 25.425781 24.25 25.5 C 24.367188 25.578125 24.492188 25.628906 24.628906 25.65625 C 24.761719 25.683594 24.898438 25.683594 25.035156 25.65625 C 25.167969 25.628906 25.292969 25.574219 25.410156 25.496094 C 25.523438 25.421875 25.621094 25.324219 25.699219 25.207031 C 25.773438 25.09375 25.828125 24.964844 25.855469 24.832031 L 27.113281 19.769531 C 27.167969 19.523438 27.167969 19.277344 27.125 19.03125 C 27.078125 18.785156 26.984375 18.554688 26.851562 18.34375 C 26.714844 18.136719 26.542969 17.960938 26.335938 17.820312 C 26.128906 17.679688 25.90625 17.582031 25.664062 17.535156 C 24.601562 17.316406 23.285156 17.058594 22.601562 16.921875 C 22.476562 16.898438 22.375 16.832031 22.304688 16.722656 C 22.234375 16.609375 22.214844 16.492188 22.242188 16.363281 L 22.882812 13.488281 L 24.078125 14.921875 C 24.507812 15.457031 25.066406 15.714844 25.746094 15.6875 L 28.246094 15.550781 C 28.375 15.546875 28.5 15.515625 28.613281 15.453125 L 29.511719 20.503906 C 29.640625 21.238281 29.546875 21.941406 29.226562 22.609375 L 27.972656 25.238281 C 27.832031 25.53125 27.625 25.765625 27.351562 25.941406 C 27.074219 26.117188 26.777344 26.203125 26.453125 26.203125 L 24.078125 26.203125 C 23.832031 26.203125 23.601562 26.152344 23.382812 26.046875 C 23.164062 25.941406 22.976562 25.792969 22.820312 25.601562 C 22.667969 25.410156 22.558594 25.195312 22.5 24.957031 C 22.441406 24.71875 22.433594 24.480469 22.480469 24.238281 L 23.105469 21.039062 L 14.113281 21.039062 C 13.988281 21.039062 13.871094 21.070312 13.765625 21.140625 C 13.679688 21.191406 13.566406 21.265625 13.429688 21.359375 C 13.355469 21.414062 13.273438 21.441406 13.183594 21.441406 L 9.335938 21.441406 C 9.210938 21.441406 9.101562 21.484375 9.007812 21.578125 C 8.917969 21.667969 8.875 21.78125 8.875 21.910156 C 8.875 22.039062 8.917969 22.148438 9.007812 22.242188 C 9.101562 22.332031 9.210938 22.378906 9.335938 22.378906 L 13.726562 22.378906 C 13.855469 22.378906 13.964844 22.425781 14.054688 22.515625 C 14.148438 22.609375 14.191406 22.71875 14.191406 22.847656 C 14.191406 22.980469 14.148438 23.089844 14.054688 23.179688 C 13.964844 23.273438 13.855469 23.320312 13.726562 23.320312 L 2.660156 23.320312 C 2.53125 23.320312 2.421875 23.363281 2.332031 23.457031 C 2.242188 23.546875 2.195312 23.660156 2.195312 23.789062 C 2.195312 23.917969 2.242188 24.027344 2.332031 24.121094 C 2.421875 24.210938 2.53125 24.257812 2.660156 24.257812 L 11.523438 24.257812 C 11.652344 24.257812 11.761719 24.300781 11.855469 24.394531 C 11.945312 24.484375 11.992188 24.597656 11.992188 24.726562 C 11.992188 24.859375 11.945312 24.96875 11.855469 25.0625 C 11.761719 25.152344 11.652344 25.199219 11.523438 25.199219 L 5.839844 25.199219 C 5.710938 25.199219 5.601562 25.242188 5.511719 25.335938 C 5.421875 25.425781 5.375 25.539062 5.375 25.667969 C 5.375 25.796875 5.421875 25.90625 5.511719 26 C 5.601562 26.089844 5.710938 26.136719 5.839844 26.136719 L 9.675781 26.136719 C 9.398438 26.949219 9.257812 27.789062 9.257812 28.648438 L 10.769531 28.648438 C 10.769531 28.65625 10.765625 28.667969 10.765625 28.675781 C 10.765625 28.78125 10.773438 28.886719 10.78125 28.988281 C 10.855469 29.875 11.203125 30.632812 11.824219 31.261719 C 12.019531 31.460938 12.230469 31.632812 12.464844 31.785156 C 12.699219 31.933594 12.945312 32.050781 13.207031 32.144531 C 13.46875 32.234375 13.734375 32.292969 14.011719 32.324219 C 14.285156 32.351562 14.558594 32.347656 14.832031 32.3125 C 15.105469 32.277344 15.375 32.210938 15.632812 32.113281 C 15.890625 32.015625 16.136719 31.890625 16.367188 31.738281 C 16.59375 31.582031 16.804688 31.402344 16.996094 31.199219 C 17.183594 30.996094 17.347656 30.773438 17.488281 30.535156 C 17.527344 30.460938 17.566406 30.390625 17.605469 30.316406 C 17.8125 29.898438 17.9375 29.453125 17.976562 28.988281 C 17.984375 28.886719 17.992188 28.78125 17.992188 28.675781 C 17.992188 28.667969 17.988281 28.660156 17.988281 28.648438 L 26.804688 28.648438 C 27.242188 28.644531 27.652344 28.539062 28.039062 28.332031 C 28.421875 28.128906 28.742188 27.847656 28.992188 27.488281 L 29.144531 27.265625 C 29.109375 27.601562 29.109375 27.9375 29.144531 28.269531 C 29.15625 28.417969 29.179688 28.558594 29.207031 28.703125 C 29.285156 29.136719 29.417969 29.554688 29.605469 29.957031 C 29.667969 29.929688 29.726562 29.894531 29.785156 29.859375 C 29.875 29.800781 29.960938 29.738281 30.042969 29.667969 C 30.152344 29.574219 30.253906 29.46875 30.34375 29.355469 C 30.398438 29.285156 30.445312 29.21875 30.492188 29.144531 C 30.550781 29.050781 30.605469 28.953125 30.65625 28.859375 C 31.175781 27.863281 31.234375 26.851562 32.332031 25.753906 C 32.472656 25.609375 32.625 25.480469 32.789062 25.367188 Z M 16.371094 28.675781 C 16.367188 28.941406 16.3125 29.195312 16.210938 29.4375 C 16.109375 29.683594 15.964844 29.898438 15.777344 30.082031 C 15.589844 30.269531 15.375 30.414062 15.132812 30.515625 C 14.890625 30.613281 14.640625 30.664062 14.378906 30.664062 C 14.117188 30.664062 13.863281 30.613281 13.621094 30.515625 C 13.378906 30.414062 13.164062 30.269531 12.980469 30.082031 C 12.792969 29.898438 12.648438 29.683594 12.546875 29.4375 C 12.441406 29.195312 12.390625 28.941406 12.386719 28.675781 C 12.386719 28.667969 12.386719 28.660156 12.386719 28.648438 L 16.367188 28.648438 C 16.367188 28.660156 16.371094 28.667969 16.371094 28.675781 Z M 21.097656 8.730469 C 21.046875 8.351562 20.949219 7.558594 20.957031 7.351562 C 21.023438 5.90625 22.023438 4.78125 23.664062 4.859375 C 23.9375 4.871094 24.207031 4.929688 24.464844 5.027344 C 24.722656 5.128906 24.960938 5.265625 25.175781 5.441406 C 25.390625 5.617188 25.570312 5.824219 25.71875 6.058594 C 25.871094 6.292969 25.980469 6.546875 26.046875 6.820312 L 23.535156 6.699219 C 23.464844 6.699219 23.402344 6.71875 23.347656 6.769531 C 23.292969 6.816406 23.265625 6.878906 23.261719 6.953125 L 23.222656 7.8125 C 23.214844 8 23.296875 8.121094 23.472656 8.179688 L 25.945312 8.992188 C 25.789062 9.457031 25.5625 9.886719 25.269531 10.277344 C 25.167969 10.414062 25.039062 10.453125 24.878906 10.390625 L 21.3125 9.003906 C 21.1875 8.957031 21.113281 8.863281 21.097656 8.730469 Z M 6.738281 14.179688 L 2.183594 14.179688 C 2.046875 14.179688 1.933594 14.128906 1.839844 14.023438 C 1.75 13.921875 1.710938 13.800781 1.722656 13.660156 C 1.746094 13.417969 1.96875 13.238281 2.210938 13.238281 L 7.925781 13.238281 C 8.0625 13.238281 8.179688 13.1875 8.269531 13.085938 C 8.363281 12.980469 8.402344 12.859375 8.386719 12.722656 C 8.363281 12.476562 8.144531 12.300781 7.898438 12.300781 L 3.320312 12.300781 C 3.191406 12.300781 3.082031 12.253906 2.992188 12.164062 C 2.902344 12.070312 2.855469 11.960938 2.855469 11.832031 C 2.855469 11.703125 2.902344 11.589844 2.992188 11.5 C 3.082031 11.40625 3.191406 11.363281 3.320312 11.363281 L 7.925781 11.363281 C 8.0625 11.363281 8.179688 11.308594 8.269531 11.207031 C 8.363281 11.101562 8.402344 10.980469 8.386719 10.84375 C 8.363281 10.597656 8.144531 10.421875 7.898438 10.421875 L 4.699219 10.421875 C 4.5625 10.421875 4.449219 10.371094 4.355469 10.265625 C 4.265625 10.164062 4.226562 10.042969 4.238281 9.902344 C 4.261719 9.660156 4.484375 9.484375 4.726562 9.484375 L 6.738281 9.484375 L 6.738281 8.941406 C 6.738281 8.816406 6.78125 8.707031 6.871094 8.613281 C 6.960938 8.523438 7.070312 8.476562 7.195312 8.476562 L 17.464844 8.476562 C 17.589844 8.476562 17.699219 8.523438 17.789062 8.613281 C 17.878906 8.707031 17.921875 8.816406 17.921875 8.941406 L 17.921875 18.019531 C 17.921875 18.199219 17.859375 18.351562 17.734375 18.480469 C 17.609375 18.605469 17.457031 18.667969 17.28125 18.667969 L 7.195312 18.667969 C 7.070312 18.667969 6.960938 18.625 6.871094 18.535156 C 6.78125 18.441406 6.738281 18.332031 6.738281 18.203125 L 6.738281 15.117188 L 7.925781 15.117188 C 8.0625 15.117188 8.179688 15.066406 8.269531 14.964844 C 8.363281 14.859375 8.402344 14.738281 8.386719 14.601562 C 8.363281 14.355469 8.144531 14.179688 7.898438 14.179688 Z M 6.738281 14.179688 " fill-opacity="1" fill-rule="nonzero"/></g><g fill="#cf0d0d" fill-opacity="1"><g transform="translate(44.935493, 30.616444)"><g><path d="M 11.734375 -3.25 C 10.316406 -3.25 8.753906 -3.484375 7.046875 -3.953125 C 5.335938 -4.429688 3.597656 -5.101562 1.828125 -5.96875 L 2.6875 -8.0625 C 4.394531 -7.195312 6 -6.535156 7.5 -6.078125 C 9.007812 -5.628906 10.484375 -5.40625 11.921875 -5.40625 C 14.328125 -5.40625 15.53125 -6.082031 15.53125 -7.4375 C 15.53125 -7.9375 15.320312 -8.332031 14.90625 -8.625 C 14.5 -8.925781 13.988281 -9.15625 13.375 -9.3125 C 12.757812 -9.46875 11.863281 -9.660156 10.6875 -9.890625 C 8.769531 -10.234375 7.1875 -10.609375 5.9375 -11.015625 C 4.695312 -11.429688 3.625 -12.140625 2.71875 -13.140625 C 1.8125 -14.140625 1.359375 -15.535156 1.359375 -17.328125 C 1.359375 -18.992188 1.773438 -20.425781 2.609375 -21.625 C 3.441406 -22.820312 4.632812 -23.738281 6.1875 -24.375 C 7.75 -25.007812 9.597656 -25.328125 11.734375 -25.328125 C 13.421875 -25.328125 15.191406 -25.132812 17.046875 -24.75 C 18.898438 -24.375 20.519531 -23.878906 21.90625 -23.265625 L 21.125 -21.1875 C 19.601562 -21.8125 18.023438 -22.296875 16.390625 -22.640625 C 14.753906 -22.992188 13.203125 -23.171875 11.734375 -23.171875 C 10.210938 -23.171875 8.859375 -22.960938 7.671875 -22.546875 C 6.492188 -22.140625 5.566406 -21.507812 4.890625 -20.65625 C 4.222656 -19.800781 3.890625 -18.722656 3.890625 -17.421875 C 3.890625 -16.109375 4.238281 -15.078125 4.9375 -14.328125 C 5.644531 -13.585938 6.5 -13.0625 7.5 -12.75 C 8.507812 -12.445312 9.847656 -12.160156 11.515625 -11.890625 C 12.984375 -11.640625 14.148438 -11.390625 15.015625 -11.140625 C 15.878906 -10.898438 16.601562 -10.5 17.1875 -9.9375 C 17.78125 -9.382812 18.078125 -8.625 18.078125 -7.65625 C 18.078125 -6.195312 17.535156 -5.097656 16.453125 -4.359375 C 15.367188 -3.617188 13.796875 -3.25 11.734375 -3.25 Z M 11.609375 0.625 C 9.679688 0.625 7.734375 0.367188 5.765625 -0.140625 C 3.796875 -0.660156 1.976562 -1.394531 0.3125 -2.34375 L 1.203125 -4.453125 C 3.054688 -3.523438 4.890625 -2.8125 6.703125 -2.3125 C 8.515625 -1.820312 10.203125 -1.578125 11.765625 -1.578125 C 14.378906 -1.578125 16.398438 -2.097656 17.828125 -3.140625 C 19.265625 -4.179688 19.984375 -5.726562 19.984375 -7.78125 C 19.984375 -9.164062 19.625 -10.234375 18.90625 -10.984375 C 18.1875 -11.734375 17.316406 -12.257812 16.296875 -12.5625 C 15.273438 -12.875 13.921875 -13.164062 12.234375 -13.4375 C 10.773438 -13.664062 9.617188 -13.894531 8.765625 -14.125 C 7.921875 -14.363281 7.21875 -14.742188 6.65625 -15.265625 C 6.09375 -15.796875 5.8125 -16.535156 5.8125 -17.484375 C 5.8125 -18.835938 6.363281 -19.84375 7.46875 -20.5 C 8.582031 -21.164062 10.054688 -21.5 11.890625 -21.5 C 13.273438 -21.5 14.738281 -21.320312 16.28125 -20.96875 C 17.820312 -20.625 19.234375 -20.148438 20.515625 -19.546875 L 19.765625 -17.546875 C 18.640625 -18.117188 17.398438 -18.5625 16.046875 -18.875 C 14.703125 -19.1875 13.328125 -19.34375 11.921875 -19.34375 C 10.722656 -19.34375 9.828125 -19.207031 9.234375 -18.9375 C 8.640625 -18.664062 8.34375 -18.234375 8.34375 -17.640625 C 8.34375 -17.203125 8.53125 -16.847656 8.90625 -16.578125 C 9.289062 -16.316406 9.785156 -16.113281 10.390625 -15.96875 C 11.003906 -15.820312 11.851562 -15.648438 12.9375 -15.453125 C 14.851562 -15.117188 16.453125 -14.738281 17.734375 -14.3125 C 19.023438 -13.894531 20.144531 -13.164062 21.09375 -12.125 C 22.039062 -11.082031 22.515625 -9.644531 22.515625 -7.8125 C 22.515625 -6 22.0625 -4.460938 21.15625 -3.203125 C 20.25 -1.953125 18.976562 -1 17.34375 -0.34375 C 15.707031 0.300781 13.796875 0.625 11.609375 0.625 Z M 11.609375 0.625 "/></g></g></g><g fill="#cf0d0d" fill-opacity="1"><g transform="translate(68.382392, 30.616444)"><g><path d="M 22.546875 -24.71875 L 22.546875 -22.546875 L 0.46875 -22.546875 L 0.46875 -24.71875 Z M 0.46875 -18.65625 L 0.46875 -20.828125 L 10.59375 -20.828125 L 10.59375 0 L 8.125 0 L 8.125 -18.65625 Z M 22.546875 -20.828125 L 22.546875 -18.65625 L 14.921875 -18.65625 L 14.921875 0 L 12.453125 0 L 12.453125 -20.828125 Z M 22.546875 -20.828125 "/></g></g></g><g fill="#cf0d0d" fill-opacity="1"><g transform="translate(91.3968, 30.616444)"><g><path d="M 10.71875 -24.71875 L 2.5 0 L 0.15625 0 L 8.5 -24.71875 Z M 15.625 -24.71875 L 24 0 L 21.65625 0 L 13.40625 -24.71875 Z M 17.140625 -7.5625 L 7.015625 -7.5625 L 12.078125 -23.515625 Z M 12.078125 -16.921875 L 9.890625 -9.734375 L 14.265625 -9.734375 Z M 17.703125 -5.84375 L 19.734375 0 L 17.359375 0 L 16.15625 -3.671875 L 8 -3.671875 L 6.796875 0 L 4.421875 0 L 6.453125 -5.84375 Z M 17.703125 -5.84375 "/></g></g></g><g fill="#cf0d0d" fill-opacity="1"><g transform="translate(115.55421, 30.616444)"><g><path d="M 13.90625 -24.71875 C 16.988281 -24.71875 19.300781 -24.078125 20.84375 -22.796875 C 22.394531 -21.515625 23.171875 -19.617188 23.171875 -17.109375 C 23.171875 -15.273438 22.832031 -13.742188 22.15625 -12.515625 C 21.488281 -11.296875 20.46875 -10.367188 19.09375 -9.734375 L 23.171875 0 L 20.578125 0 L 16.25 -11.03125 C 17.75 -11.3125 18.851562 -11.9375 19.5625 -12.90625 C 20.28125 -13.875 20.640625 -15.210938 20.640625 -16.921875 C 20.640625 -18.835938 20.046875 -20.253906 18.859375 -21.171875 C 17.671875 -22.085938 15.800781 -22.546875 13.25 -22.546875 L 4.328125 -22.546875 L 4.328125 0 L 1.859375 0 L 1.859375 -24.71875 Z M 13.71875 -20.828125 C 15.363281 -20.828125 16.609375 -20.484375 17.453125 -19.796875 C 18.296875 -19.117188 18.71875 -18.113281 18.71875 -16.78125 C 18.71875 -15.332031 18.316406 -14.25 17.515625 -13.53125 C 16.710938 -12.8125 15.488281 -12.453125 13.84375 -12.453125 L 6.171875 -12.453125 L 6.171875 -20.828125 Z M 13.78125 -14.609375 C 14.582031 -14.609375 15.179688 -14.785156 15.578125 -15.140625 C 15.984375 -15.503906 16.1875 -16.039062 16.1875 -16.75 C 16.1875 -18.019531 15.382812 -18.65625 13.78125 -18.65625 L 8.5 -18.65625 L 8.5 -14.609375 Z M 13.15625 -10.75 C 13.507812 -10.75 13.972656 -10.769531 14.546875 -10.8125 L 18.59375 0 L 16.03125 0 L 12.96875 -8.59375 L 8.65625 -8.59375 L 8.65625 0 L 6.171875 0 L 6.171875 -10.75 Z M 13.15625 -10.75 "/></g></g></g><g fill="#cf0d0d" fill-opacity="1"><g transform="translate(139.866075, 30.616444)"><g><path d="M 2.5 -24.71875 L 10.71875 0 L 8.5 0 L 0.15625 -24.71875 Z M 6.796875 -24.71875 L 12.078125 -7.8125 L 17.359375 -24.71875 L 19.734375 -24.71875 L 12.078125 -1.234375 L 4.421875 -24.71875 Z M 24 -24.71875 L 15.625 0 L 13.40625 0 L 21.65625 -24.71875 Z M 24 -24.71875 "/></g></g></g><g fill="#cf0d0d" fill-opacity="1"><g transform="translate(164.023485, 30.616444)"><g><path d="M 4.328125 -24.71875 L 4.328125 0 L 1.859375 0 L 1.859375 -24.71875 Z M 8.65625 -24.71875 L 8.65625 0 L 6.171875 0 L 6.171875 -24.71875 Z M 8.65625 -24.71875 "/></g></g></g><g fill="#cf0d0d" fill-opacity="1"><g transform="translate(174.526705, 30.616444)"><g><path d="M 4.328125 -24.71875 L 4.328125 0 L 1.859375 0 L 1.859375 -24.71875 Z M 8.53125 -24.71875 L 16.6875 -12.390625 L 16.6875 -24.71875 L 19.15625 -24.71875 L 19.15625 -4.234375 L 5.8125 -24.71875 Z M 23.484375 -24.71875 L 23.484375 0 L 21 0 L 21 -24.71875 Z M 19.578125 0 L 16.859375 0 L 8.65625 -12.359375 L 8.65625 0 L 6.171875 0 L 6.171875 -20.578125 Z M 19.578125 0 "/></g></g></g><g fill="#cf0d0d" fill-opacity="1"><g transform="translate(199.857991, 30.616444)"><g><path d="M 13 0.765625 C 10.425781 0.765625 8.253906 0.265625 6.484375 -0.734375 C 4.710938 -1.742188 3.367188 -3.238281 2.453125 -5.21875 C 1.535156 -7.195312 1.078125 -9.640625 1.078125 -12.546875 C 1.078125 -15.367188 1.535156 -17.742188 2.453125 -19.671875 C 3.367188 -21.609375 4.710938 -23.0625 6.484375 -24.03125 C 8.253906 -25 10.40625 -25.484375 12.9375 -25.484375 C 14.425781 -25.484375 15.898438 -25.300781 17.359375 -24.9375 C 18.816406 -24.582031 20.3125 -24.023438 21.84375 -23.265625 L 20.9375 -21.34375 C 18.382812 -22.664062 15.78125 -23.328125 13.125 -23.328125 C 10 -23.328125 7.628906 -22.414062 6.015625 -20.59375 C 4.410156 -18.769531 3.609375 -16.085938 3.609375 -12.546875 C 3.609375 -10.148438 3.972656 -8.117188 4.703125 -6.453125 C 5.441406 -4.785156 6.515625 -3.523438 7.921875 -2.671875 C 9.335938 -1.816406 11.039062 -1.390625 13.03125 -1.390625 C 15.132812 -1.390625 17.347656 -1.71875 19.671875 -2.375 L 19.671875 -10.5625 L 22.15625 -10.5625 L 22.15625 -0.703125 C 20.769531 -0.273438 19.265625 0.0703125 17.640625 0.34375 C 16.015625 0.625 14.46875 0.765625 13 0.765625 Z M 13.03125 -3.0625 C 10.601562 -3.0625 8.742188 -3.863281 7.453125 -5.46875 C 6.171875 -7.070312 5.53125 -9.429688 5.53125 -12.546875 C 5.53125 -15.585938 6.175781 -17.863281 7.46875 -19.375 C 8.769531 -20.894531 10.675781 -21.65625 13.1875 -21.65625 C 14.34375 -21.65625 15.503906 -21.492188 16.671875 -21.171875 C 17.847656 -20.859375 19.003906 -20.390625 20.140625 -19.765625 L 19.21875 -17.828125 C 18.1875 -18.398438 17.203125 -18.816406 16.265625 -19.078125 C 15.328125 -19.347656 14.382812 -19.484375 13.4375 -19.484375 C 12.195312 -19.484375 11.1875 -19.257812 10.40625 -18.8125 C 9.625 -18.363281 9.035156 -17.628906 8.640625 -16.609375 C 8.253906 -15.585938 8.0625 -14.210938 8.0625 -12.484375 C 8.0625 -9.910156 8.484375 -8.054688 9.328125 -6.921875 C 10.171875 -5.785156 11.4375 -5.21875 13.125 -5.21875 C 13.945312 -5.21875 14.691406 -5.289062 15.359375 -5.4375 L 15.359375 -10.5625 L 17.828125 -10.5625 L 17.828125 -3.609375 C 16.160156 -3.242188 14.5625 -3.0625 13.03125 -3.0625 Z M 13.03125 -3.0625 "/></g></g></g></svg>