<svg xmlns="http://www.w3.org/2000/svg" xmlns:xlink="http://www.w3.org/1999/xlink" width="96" zoomAndPan="magnify" viewBox="0 0 72 72" height="96" preserveAspectRatio="xMidYMid meet" version="1.0"><defs><clipPath id="601ef3d600"><path d="M 0.867188 9.828125 L 71.367188 9.828125 L 71.367188 62.328125 L 0.867188 62.328125 Z M 0.867188 9.828125 " clip-rule="nonzero"/></clipPath></defs><g clip-path="url(#601ef3d600)"><path fill="#ff0000" d="M 70.429688 51.097656 C 69.996094 50.292969 69.429688 49.59375 68.734375 48.996094 C 68.039062 48.398438 67.261719 47.949219 66.398438 47.640625 C 65.738281 47.839844 65.066406 47.996094 64.386719 48.117188 C 62.882812 48.40625 61.464844 48.679688 60.113281 50.011719 C 58.761719 51.34375 58.296875 52.578125 57.804688 53.882812 C 57.5 54.6875 57.183594 55.519531 56.65625 56.347656 C 56.730469 56.761719 56.851562 57.160156 57.019531 57.546875 C 57.28125 58.183594 57.628906 58.773438 58.0625 59.3125 C 58.492188 59.855469 58.988281 60.328125 59.550781 60.730469 C 60.113281 61.132812 60.71875 61.449219 61.367188 61.683594 C 62.019531 61.917969 62.691406 62.054688 63.378906 62.101562 C 64.070312 62.148438 64.753906 62.097656 65.429688 61.953125 C 66.105469 61.808594 66.75 61.574219 67.359375 61.25 C 67.96875 60.925781 68.523438 60.523438 69.023438 60.042969 C 69.519531 59.5625 69.941406 59.027344 70.289062 58.429688 C 70.375 58.28125 70.457031 58.136719 70.53125 57.984375 C 70.960938 57.132812 71.21875 56.230469 71.296875 55.28125 C 71.316406 55.070312 71.332031 54.859375 71.332031 54.648438 C 71.332031 53.386719 71.03125 52.203125 70.429688 51.097656 Z M 67.839844 55.691406 C 67.746094 56.019531 67.613281 56.332031 67.445312 56.628906 C 67.273438 56.921875 67.066406 57.191406 66.828125 57.433594 C 66.589844 57.679688 66.324219 57.886719 66.03125 58.066406 C 65.742188 58.242188 65.433594 58.378906 65.105469 58.476562 C 64.777344 58.574219 64.445312 58.632812 64.105469 58.644531 C 63.761719 58.660156 63.425781 58.632812 63.09375 58.5625 C 62.757812 58.492188 62.4375 58.378906 62.132812 58.230469 C 61.828125 58.078125 61.546875 57.890625 61.289062 57.667969 C 61.027344 57.445312 60.800781 57.195312 60.605469 56.914062 C 60.410156 56.636719 60.253906 56.335938 60.132812 56.015625 C 60.015625 55.699219 59.9375 55.367188 59.898438 55.03125 C 59.863281 54.691406 59.871094 54.351562 59.917969 54.015625 C 59.96875 53.675781 60.058594 53.351562 60.1875 53.035156 C 60.320312 52.722656 60.488281 52.429688 60.691406 52.15625 C 60.898438 51.882812 61.132812 51.640625 61.398438 51.429688 C 61.664062 51.214844 61.953125 51.039062 62.265625 50.898438 C 62.578125 50.757812 62.898438 50.660156 63.234375 50.601562 C 63.570312 50.542969 63.910156 50.527344 64.25 50.550781 C 64.589844 50.578125 64.921875 50.648438 65.246094 50.757812 C 65.566406 50.867188 65.871094 51.015625 66.15625 51.203125 C 66.441406 51.390625 66.699219 51.609375 66.929688 51.859375 C 67.160156 52.113281 67.355469 52.390625 67.515625 52.691406 C 67.675781 52.992188 67.796875 53.308594 67.875 53.636719 C 67.957031 53.96875 67.992188 54.304688 67.988281 54.648438 C 67.984375 55 67.933594 55.351562 67.839844 55.691406 Z M 60.589844 48.878906 C 61.007812 48.589844 61.453125 48.351562 61.925781 48.167969 C 62.074219 48.109375 62.222656 48.058594 62.375 48.007812 C 62.976562 47.828125 63.585938 47.683594 64.203125 47.578125 C 64.359375 47.546875 64.511719 47.515625 64.667969 47.488281 C 64.886719 47.441406 65.105469 47.398438 65.324219 47.347656 C 65.417969 47.324219 65.511719 47.304688 65.605469 47.28125 C 66.089844 47.164062 66.566406 47.007812 67.027344 46.8125 C 67.328125 46.683594 67.621094 46.535156 67.902344 46.367188 C 68.019531 46.292969 68.128906 46.222656 68.226562 46.15625 C 68.480469 45.988281 68.707031 45.789062 68.902344 45.554688 C 68.28125 45.097656 67.613281 44.726562 66.894531 44.445312 C 66.835938 44.417969 66.777344 44.394531 66.71875 44.371094 C 66.398438 44.25 66.070312 44.144531 65.738281 44.054688 C 65.675781 44.039062 65.609375 44.023438 65.546875 44.007812 C 65.199219 43.921875 64.84375 43.851562 64.488281 43.804688 C 64.121094 43.761719 63.75 43.738281 63.382812 43.734375 C 63.3125 43.734375 63.242188 43.730469 63.171875 43.730469 C 62.878906 43.734375 62.585938 43.746094 62.292969 43.773438 C 61.105469 43.894531 59.976562 44.222656 58.914062 44.757812 L 59.523438 43.871094 L 59.824219 43.4375 C 60.117188 43.015625 60.289062 42.550781 60.351562 42.042969 C 60.414062 41.535156 60.351562 41.039062 60.167969 40.5625 L 56.175781 30.09375 L 58.636719 30.484375 C 58.765625 30.503906 58.886719 30.496094 59.011719 30.464844 C 59.136719 30.429688 59.246094 30.371094 59.34375 30.285156 C 59.441406 30.203125 59.515625 30.105469 59.570312 29.988281 C 59.621094 29.871094 59.648438 29.75 59.648438 29.621094 L 59.648438 25.027344 C 59.648438 24.898438 59.621094 24.777344 59.570312 24.660156 C 59.515625 24.542969 59.441406 24.445312 59.34375 24.359375 C 59.246094 24.277344 59.136719 24.21875 59.011719 24.183594 C 58.886719 24.148438 58.765625 24.140625 58.636719 24.164062 L 52.992188 25.058594 C 52.742188 25.097656 52.539062 25.214844 52.375 25.40625 C 52.210938 25.597656 52.128906 25.820312 52.128906 26.074219 L 52.128906 26.921875 C 52.042969 26.902344 51.953125 26.890625 51.867188 26.886719 L 47.367188 26.828125 C 47.050781 26.816406 46.789062 26.6875 46.585938 26.441406 L 42.515625 21.425781 C 40.261719 18.664062 36.414062 19.523438 35.691406 23.011719 L 33.574219 30.96875 C 33.507812 31.292969 33.46875 31.621094 33.460938 31.953125 C 33.457031 32.28125 33.480469 32.613281 33.535156 32.9375 C 33.589844 33.265625 33.671875 33.585938 33.785156 33.894531 C 33.898438 34.207031 34.042969 34.503906 34.210938 34.789062 C 34.378906 35.074219 34.574219 35.339844 34.792969 35.589844 C 35.011719 35.839844 35.25 36.066406 35.511719 36.269531 C 35.773438 36.472656 36.050781 36.652344 36.34375 36.804688 C 36.636719 36.957031 36.945312 37.082031 37.261719 37.175781 L 24.183594 37.175781 C 24.050781 37.175781 23.9375 37.222656 23.839844 37.320312 C 23.746094 37.414062 23.699219 37.527344 23.699219 37.660156 L 23.699219 39.480469 C 23.699219 39.613281 23.746094 39.726562 23.839844 39.820312 C 23.9375 39.917969 24.050781 39.964844 24.183594 39.964844 L 42.3125 39.964844 C 42.445312 39.964844 42.558594 39.917969 42.652344 39.820312 C 42.746094 39.726562 42.796875 39.613281 42.796875 39.480469 L 42.796875 38.039062 L 45.265625 38.394531 L 43.3125 47.09375 C 43.265625 47.355469 43.269531 47.613281 43.324219 47.871094 C 43.382812 48.132812 43.484375 48.371094 43.636719 48.589844 C 43.785156 48.804688 43.972656 48.988281 44.191406 49.132812 C 44.414062 49.277344 44.65625 49.375 44.914062 49.425781 C 45.175781 49.476562 45.433594 49.476562 45.695312 49.421875 C 45.953125 49.371094 46.195312 49.273438 46.414062 49.125 C 46.636719 48.980469 46.820312 48.796875 46.96875 48.578125 C 47.117188 48.359375 47.21875 48.117188 47.273438 47.859375 L 49.691406 38.261719 C 49.789062 37.792969 49.796875 37.328125 49.707031 36.859375 C 49.621094 36.390625 49.445312 35.957031 49.183594 35.558594 C 48.921875 35.160156 48.59375 34.824219 48.199219 34.558594 C 47.800781 34.292969 47.371094 34.109375 46.902344 34.015625 C 44.867188 33.609375 42.339844 33.117188 41.023438 32.859375 C 40.78125 32.8125 40.589844 32.683594 40.453125 32.476562 C 40.320312 32.265625 40.277344 32.042969 40.335938 31.800781 L 41.5625 26.34375 L 43.863281 29.066406 C 44.25 29.546875 44.726562 29.914062 45.292969 30.167969 C 45.855469 30.425781 46.445312 30.542969 47.0625 30.519531 L 51.867188 30.257812 C 52.113281 30.246094 52.351562 30.1875 52.570312 30.074219 L 54.292969 39.65625 C 54.542969 41.046875 54.359375 42.375 53.746094 43.648438 L 51.339844 48.632812 C 51.070312 49.191406 50.671875 49.636719 50.144531 49.96875 C 49.617188 50.300781 49.042969 50.464844 48.417969 50.464844 L 43.859375 50.464844 C 43.625 50.464844 43.398438 50.4375 43.171875 50.386719 C 42.949219 50.339844 42.730469 50.261719 42.523438 50.164062 C 42.3125 50.066406 42.117188 49.945312 41.9375 49.804688 C 41.753906 49.664062 41.589844 49.503906 41.445312 49.324219 C 41.296875 49.144531 41.171875 48.953125 41.066406 48.746094 C 40.964844 48.542969 40.882812 48.328125 40.828125 48.101562 C 40.773438 47.878906 40.742188 47.652344 40.734375 47.421875 C 40.730469 47.191406 40.75 46.960938 40.792969 46.734375 L 41.996094 40.667969 L 24.71875 40.667969 C 24.476562 40.667969 24.253906 40.730469 24.046875 40.859375 C 23.886719 40.960938 23.667969 41.101562 23.40625 41.277344 C 23.261719 41.378906 23.105469 41.429688 22.929688 41.429688 L 15.542969 41.429688 C 15.296875 41.429688 15.089844 41.515625 14.914062 41.691406 C 14.742188 41.863281 14.652344 42.074219 14.652344 42.320312 C 14.652344 42.566406 14.742188 42.777344 14.914062 42.949219 C 15.089844 43.125 15.296875 43.210938 15.542969 43.210938 L 23.980469 43.210938 C 24.226562 43.210938 24.433594 43.296875 24.609375 43.472656 C 24.78125 43.644531 24.871094 43.855469 24.871094 44.101562 C 24.871094 44.347656 24.78125 44.558594 24.609375 44.730469 C 24.433594 44.90625 24.226562 44.992188 23.980469 44.992188 L 2.71875 44.992188 C 2.472656 44.992188 2.261719 45.078125 2.089844 45.253906 C 1.914062 45.429688 1.828125 45.636719 1.828125 45.882812 C 1.828125 46.128906 1.914062 46.339844 2.089844 46.515625 C 2.261719 46.6875 2.472656 46.773438 2.71875 46.773438 L 19.746094 46.773438 C 19.992188 46.773438 20.203125 46.859375 20.378906 47.03125 C 20.554688 47.207031 20.644531 47.417969 20.644531 47.664062 C 20.644531 47.914062 20.554688 48.125 20.378906 48.300781 C 20.203125 48.472656 19.992188 48.558594 19.746094 48.554688 L 8.828125 48.554688 C 8.582031 48.554688 8.371094 48.644531 8.195312 48.816406 C 8.023438 48.992188 7.9375 49.203125 7.9375 49.449219 C 7.9375 49.695312 8.023438 49.902344 8.195312 50.078125 C 8.371094 50.25 8.582031 50.339844 8.828125 50.339844 L 16.195312 50.339844 C 15.660156 51.882812 15.390625 53.46875 15.390625 55.105469 L 18.292969 55.105469 C 18.292969 55.121094 18.289062 55.136719 18.289062 55.15625 C 18.289062 55.355469 18.300781 55.550781 18.316406 55.746094 C 18.457031 57.429688 19.125 58.867188 20.320312 60.0625 C 20.695312 60.4375 21.105469 60.769531 21.554688 61.050781 C 22 61.332031 22.476562 61.558594 22.976562 61.734375 C 23.480469 61.90625 23.992188 62.019531 24.519531 62.074219 C 25.046875 62.128906 25.574219 62.121094 26.101562 62.054688 C 26.628906 61.988281 27.136719 61.863281 27.636719 61.679688 C 28.132812 61.492188 28.601562 61.253906 29.042969 60.960938 C 29.484375 60.667969 29.890625 60.332031 30.253906 59.945312 C 30.617188 59.558594 30.929688 59.136719 31.199219 58.679688 C 31.277344 58.542969 31.355469 58.40625 31.425781 58.265625 C 31.824219 57.472656 32.0625 56.632812 32.136719 55.746094 C 32.152344 55.550781 32.167969 55.355469 32.167969 55.15625 C 32.167969 55.140625 32.164062 55.121094 32.164062 55.105469 L 49.101562 55.105469 C 49.9375 55.09375 50.722656 54.894531 51.464844 54.507812 C 52.203125 54.117188 52.816406 53.582031 53.296875 52.898438 L 53.589844 52.480469 C 53.527344 53.117188 53.527344 53.75 53.585938 54.386719 C 53.617188 54.664062 53.660156 54.9375 53.710938 55.207031 C 53.863281 56.03125 54.121094 56.824219 54.476562 57.582031 C 54.597656 57.53125 54.710938 57.46875 54.824219 57.398438 C 54.996094 57.292969 55.164062 57.171875 55.320312 57.039062 C 55.53125 56.859375 55.722656 56.660156 55.894531 56.441406 C 55.996094 56.316406 56.09375 56.183594 56.179688 56.046875 C 56.292969 55.863281 56.394531 55.683594 56.492188 55.503906 C 57.496094 53.613281 57.605469 51.695312 59.71875 49.609375 C 59.988281 49.339844 60.277344 49.097656 60.589844 48.878906 Z M 29.054688 55.15625 C 29.046875 55.660156 28.945312 56.140625 28.75 56.605469 C 28.550781 57.066406 28.273438 57.472656 27.914062 57.828125 C 27.558594 58.179688 27.144531 58.453125 26.679688 58.640625 C 26.214844 58.832031 25.730469 58.929688 25.226562 58.929688 C 24.726562 58.929688 24.242188 58.832031 23.773438 58.640625 C 23.308594 58.453125 22.898438 58.179688 22.539062 57.828125 C 22.183594 57.472656 21.90625 57.066406 21.707031 56.605469 C 21.507812 56.140625 21.40625 55.660156 21.398438 55.15625 C 21.398438 55.140625 21.40625 55.121094 21.40625 55.105469 L 29.050781 55.105469 C 29.050781 55.121094 29.054688 55.136719 29.054688 55.15625 Z M 38.132812 17.316406 C 38.039062 16.601562 37.847656 15.097656 37.867188 14.703125 C 37.996094 11.964844 39.910156 9.824219 43.0625 9.972656 C 43.59375 9.996094 44.105469 10.105469 44.601562 10.292969 C 45.097656 10.480469 45.554688 10.742188 45.964844 11.078125 C 46.378906 11.414062 46.726562 11.804688 47.015625 12.25 C 47.300781 12.695312 47.511719 13.175781 47.644531 13.691406 L 42.816406 13.46875 C 42.679688 13.460938 42.558594 13.503906 42.457031 13.597656 C 42.355469 13.691406 42.300781 13.804688 42.292969 13.945312 L 42.21875 15.578125 C 42.210938 15.734375 42.25 15.875 42.339844 16.003906 C 42.429688 16.132812 42.546875 16.222656 42.695312 16.269531 L 47.445312 17.8125 C 47.144531 18.699219 46.714844 19.511719 46.148438 20.253906 C 46.0625 20.367188 45.949219 20.445312 45.808594 20.484375 C 45.671875 20.523438 45.535156 20.519531 45.398438 20.464844 L 38.546875 17.835938 C 38.304688 17.746094 38.167969 17.570312 38.132812 17.316406 Z M 10.546875 27.65625 L 1.804688 27.65625 C 1.679688 27.65625 1.558594 27.628906 1.441406 27.578125 C 1.328125 27.527344 1.226562 27.453125 1.144531 27.359375 C 1.058594 27.265625 0.996094 27.160156 0.957031 27.039062 C 0.917969 26.917969 0.90625 26.796875 0.917969 26.671875 C 0.964844 26.207031 1.390625 25.871094 1.855469 25.871094 L 12.835938 25.871094 C 12.960938 25.871094 13.082031 25.847656 13.195312 25.796875 C 13.3125 25.746094 13.410156 25.671875 13.496094 25.578125 C 13.582031 25.484375 13.640625 25.378906 13.679688 25.257812 C 13.71875 25.136719 13.734375 25.015625 13.722656 24.890625 C 13.675781 24.425781 13.25 24.089844 12.785156 24.089844 L 3.988281 24.089844 C 3.742188 24.089844 3.53125 24.003906 3.359375 23.828125 C 3.183594 23.65625 3.097656 23.445312 3.097656 23.199219 C 3.097656 22.953125 3.183594 22.742188 3.359375 22.570312 C 3.53125 22.394531 3.742188 22.308594 3.988281 22.308594 L 12.835938 22.308594 C 12.960938 22.308594 13.082031 22.28125 13.195312 22.230469 C 13.3125 22.179688 13.410156 22.109375 13.496094 22.015625 C 13.582031 21.921875 13.640625 21.8125 13.679688 21.695312 C 13.71875 21.574219 13.734375 21.453125 13.722656 21.324219 C 13.675781 20.863281 13.25 20.527344 12.785156 20.527344 L 6.636719 20.527344 C 6.511719 20.527344 6.390625 20.5 6.273438 20.449219 C 6.160156 20.398438 6.058594 20.324219 5.976562 20.230469 C 5.890625 20.140625 5.828125 20.03125 5.789062 19.910156 C 5.75 19.792969 5.738281 19.667969 5.75 19.542969 C 5.796875 19.082031 6.222656 18.746094 6.6875 18.746094 L 10.546875 18.746094 L 10.546875 17.722656 C 10.546875 17.476562 10.636719 17.269531 10.808594 17.097656 C 10.980469 16.925781 11.1875 16.839844 11.433594 16.839844 L 31.152344 16.839844 C 31.398438 16.839844 31.605469 16.925781 31.777344 17.097656 C 31.949219 17.269531 32.035156 17.476562 32.035156 17.722656 L 32.035156 34.9375 C 32.035156 35.101562 32.003906 35.257812 31.941406 35.410156 C 31.878906 35.5625 31.789062 35.695312 31.675781 35.8125 C 31.558594 35.925781 31.425781 36.015625 31.273438 36.078125 C 31.121094 36.140625 30.964844 36.171875 30.800781 36.171875 L 11.433594 36.171875 C 11.1875 36.171875 10.980469 36.085938 10.808594 35.914062 C 10.636719 35.742188 10.546875 35.535156 10.546875 35.289062 L 10.546875 29.4375 L 12.835938 29.4375 C 12.960938 29.4375 13.082031 29.410156 13.195312 29.359375 C 13.3125 29.308594 13.410156 29.234375 13.496094 29.140625 C 13.582031 29.046875 13.640625 28.941406 13.679688 28.820312 C 13.71875 28.703125 13.734375 28.578125 13.722656 28.453125 C 13.675781 27.988281 13.25 27.65625 12.785156 27.65625 Z M 10.546875 27.65625 " fill-opacity="1" fill-rule="nonzero"/></g></svg>